<?xml version="1.0" standalone="no"?>
<!DOCTYPE svg PUBLIC "-//W3C//DTD SVG 20010904//EN"
 "http://www.w3.org/TR/2001/REC-SVG-20010904/DTD/svg10.dtd">
<svg version="1.0" xmlns="http://www.w3.org/2000/svg"
 width="148.000000pt" height="433.000000pt" viewBox="0 0 148.000000 433.000000"
 preserveAspectRatio="xMidYMid meet">

<g transform="translate(0.000000,433.000000) scale(0.100000,-0.100000)"
fill="#000000" stroke="none">
<path d="M523 4251 c-18 -5 -39 -14 -47 -20 -21 -18 -31 -72 -16 -81 8 -5 10
-15 6 -26 -4 -10 -1 -21 5 -25 9 -5 9 -22 0 -70 -10 -50 -10 -67 0 -86 7 -12
16 -23 21 -23 4 0 8 -7 8 -15 0 -8 -5 -15 -11 -15 -8 0 -10 -17 -6 -52 6 -70
-35 -317 -78 -468 -19 -65 -59 -175 -90 -246 -124 -282 -177 -451 -160 -509 8
-28 10 -26 15 25 3 30 5 -137 5 -372 0 -234 -3 -424 -7 -421 -11 6 -10 -5 2
-27 7 -12 7 -27 0 -45 -7 -17 -7 -24 0 -20 6 4 10 -6 10 -22 0 -22 -2 -25 -10
-13 -14 22 -13 3 5 -100 32 -176 67 -479 67 -575 0 -65 -7 -133 -20 -195 -12
-52 -28 -126 -36 -165 -23 -102 -21 -283 3 -377 23 -89 63 -173 90 -187 18
-10 261 -31 361 -31 42 0 51 3 40 11 -13 9 -12 10 3 5 27 -9 43 -13 34 -9 -4
3 -5 9 -1 14 3 5 15 3 27 -6 12 -8 26 -15 32 -15 5 0 3 5 -5 10 -22 14 5 13
32 -1 15 -8 19 -8 14 0 -10 15 17 14 32 -1 10 -10 15 -10 21 1 6 8 14 10 22 5
16 -10 22 -10 169 0 63 5 122 12 131 17 20 10 54 81 81 164 24 74 35 276 19
355 -5 30 -22 109 -37 175 -41 185 -32 372 42 840 10 63 14 128 10 175 -3 41
-6 182 -7 312 0 131 -4 250 -8 265 -7 26 -3 89 14 233 6 47 2 70 -29 162 -20
58 -69 183 -111 277 -41 93 -91 225 -110 293 -20 68 -40 132 -45 143 -25 54
-40 189 -33 306 3 66 10 122 15 125 12 8 10 54 -3 54 -6 0 -8 -9 -4 -20 5 -15
2 -20 -13 -20 -17 0 -20 6 -18 35 2 19 -2 46 -9 59 -7 13 -9 29 -4 37 4 7 5
17 2 23 -3 5 -2 6 3 3 5 -3 11 -20 12 -37 3 -33 20 -75 28 -67 3 2 1 23 -4 45
-11 45 -8 52 20 52 14 0 18 5 15 18 -3 9 -8 34 -12 55 -11 66 -30 72 -255 74
-107 1 -210 -2 -227 -6z m43 -126 c-7 -19 -36 -19 -36 0 0 17 33 38 38 24 2
-5 1 -16 -2 -24z m101 -5 c14 0 35 17 31 25 -1 5 4 9 14 11 9 1 18 -6 21 -17
7 -28 53 -25 61 4 l7 22 9 -22 c12 -30 73 -34 63 -5 -5 15 -3 14 13 -3 14 -14
20 -32 19 -67 -1 -26 -4 -50 -8 -54 -4 -4 -7 -1 -7 7 0 12 -2 12 -9 0 -6 -9
-28 -13 -68 -12 -32 0 -72 -4 -88 -8 -24 -7 -11 -10 60 -12 121 -3 120 -3 118
-13 -2 -5 -47 -11 -100 -13 -54 -2 -122 -5 -151 -7 -30 -3 -65 0 -79 5 -22 8
-23 11 -12 26 9 11 10 17 3 20 -11 4 -10 84 1 103 3 5 13 10 21 10 8 0 14 5
14 10 0 6 10 14 23 19 17 7 24 4 29 -10 4 -11 11 -19 15 -19z m-159 -59 c0
-92 -6 -115 -25 -103 -8 5 -7 26 4 76 10 53 11 71 2 77 -13 8 -5 39 10 39 6 0
10 -38 9 -89z m250 -128 c-67 -2 -118 -8 -118 -13 0 -6 20 -10 44 -10 72 0
168 -13 155 -20 -7 -5 0 -10 20 -15 32 -7 53 -25 29 -25 -7 0 -2 -6 12 -13 34
-17 50 -53 50 -114 0 -77 19 -196 40 -258 10 -30 16 -55 12 -55 -4 -1 -97 -1
-207 -2 l-200 -2 190 -5 c127 -4 175 -8 145 -13 -25 -4 -94 -5 -155 -3 -75 3
-102 2 -85 -5 26 -9 -39 -6 -145 7 -47 6 -48 7 -20 14 29 7 29 8 -7 6 -20 -1
-40 2 -44 6 -4 4 0 7 8 7 11 0 20 17 28 53 6 28 14 61 17 72 4 17 2 18 -7 5
-9 -12 -10 -8 -5 20 3 19 10 78 15 130 5 52 15 117 21 143 6 26 9 50 6 53 -3
3 2 14 11 25 15 17 29 19 162 17 l145 -2 -117 -3z m-409 -1170 c-4 -27 -8 -78
-8 -115 -1 -38 -4 -68 -7 -68 -3 0 -19 9 -36 21 -25 18 -28 26 -23 51 13 55
64 158 80 158 1 0 -2 -21 -6 -47z m124 -50 c3 -53 3 -101 1 -105 -3 -4 -21 -8
-40 -8 -30 0 -34 3 -34 27 0 15 9 50 19 78 11 27 23 62 26 78 11 53 22 26 28
-70z m-286 -5 c-3 -8 -6 -5 -6 6 -1 11 2 17 5 13 3 -3 4 -12 1 -19z m271 -151
c6 -7 13 -49 16 -93 6 -103 7 -108 29 -116 9 -4 20 -14 23 -22 7 -18 -18 -72
-32 -69 -5 1 -15 -15 -21 -35 l-11 -37 19 25 c64 79 110 128 126 131 10 3 34
2 54 -1 l36 -5 -43 -79 c-24 -43 -44 -81 -44 -84 0 -3 16 9 35 28 52 51 52 30
-1 -29 -31 -34 -54 -51 -70 -51 -13 0 -24 5 -24 10 0 6 -12 3 -26 -7 -26 -17
-27 -16 -47 8 l-20 24 8 -24 c5 -16 3 -26 -6 -32 -9 -6 -1 -9 24 -9 42 0 122
-36 151 -69 23 -25 20 -26 -27 -6 -46 19 -81 19 -97 0 -12 -14 -15 -14 -31 1
-17 16 -18 15 -10 -12 4 -16 9 -57 10 -90 2 -72 -4 -77 -84 -68 l-54 7 2 93
c2 80 0 93 -13 88 -8 -3 -34 -10 -58 -17 -35 -9 -45 -9 -58 5 -26 26 -35 86
-23 172 16 124 65 218 132 252 23 12 27 21 27 57 0 24 5 48 12 55 16 16 83 15
96 -1z m647 -119 c42 -22 55 -39 44 -60 -10 -18 -12 -17 -52 12 -48 35 -77 39
-77 10 0 -54 -53 -130 -90 -130 -15 0 -20 7 -20 26 0 33 15 61 54 103 l31 33
-31 -15 c-17 -9 -57 -44 -89 -79 -106 -114 -161 -277 -96 -286 42 -6 111 77
111 133 0 36 -20 28 -45 -18 -11 -21 -30 -44 -42 -53 -21 -14 -23 -14 -23 1 0
56 57 120 102 113 84 -12 -36 -218 -126 -218 -50 0 -80 40 -73 98 11 99 121
255 219 311 41 23 61 29 116 29 37 0 76 -5 87 -10z m135 -18 c0 -10 -4 -21 -9
-24 -5 -4 -7 4 -4 16 l5 23 -16 -22 c-24 -33 -110 -213 -104 -219 10 -10 80
107 82 139 4 47 4 47 25 47 11 0 29 12 40 26 16 21 21 23 21 9 0 -9 -15 -32
-32 -50 -18 -18 -45 -57 -61 -87 -15 -29 -45 -75 -67 -102 -22 -26 -40 -53
-40 -60 0 -6 -3 -21 -6 -33 -14 -50 17 -19 57 57 44 85 60 101 96 91 l21 -6
-24 -75 c-25 -78 -28 -124 -4 -57 8 21 21 37 30 37 10 0 11 -3 4 -8 -7 -4 -19
-23 -27 -42 -8 -19 -22 -44 -31 -55 -15 -18 -17 -19 -29 -4 -10 14 -14 14 -25
3 -17 -18 -31 -18 -39 1 -5 14 -8 14 -24 -1 -10 -9 -25 -14 -35 -10 -14 5 -16
16 -11 64 5 55 5 56 -11 34 -46 -64 -86 -102 -107 -102 -57 0 -33 103 43 183
57 59 102 46 82 -24 -15 -51 12 -17 40 51 12 30 38 81 57 113 64 106 103 139
103 87z m-482 -102 c-14 -21 -58 -38 -58 -24 0 19 28 46 49 46 22 0 23 -1 9
-22z m-420 -533 l-1 -40 -4 35 c-3 19 -9 38 -15 41 -6 4 -7 12 -3 19 12 20 25
-10 23 -55z m-35 -47 c7 -93 35 -238 50 -253 6 -6 6 18 2 65 -4 41 -5 73 -2
70 8 -7 31 -248 48 -480 11 -158 10 -183 -5 -260 -20 -98 -35 -124 -50 -88 -5
12 -9 25 -8 28 0 3 3 51 7 106 5 88 0 182 -22 404 -3 30 -7 89 -9 130 -1 41
-9 128 -18 193 -18 134 -20 167 -7 167 4 0 11 -37 14 -82z m168 67 c4 -3 8
-38 8 -79 0 -41 5 -102 10 -137 5 -35 12 -153 16 -262 3 -109 10 -231 16 -272
7 -51 7 -92 0 -132 -6 -32 -13 -74 -15 -93 -3 -19 -9 -57 -15 -83 -6 -26 -14
-114 -17 -195 -7 -184 -9 -198 -24 -217 -21 -25 -48 -18 -67 17 -12 24 -17 58
-17 118 -1 83 0 87 42 156 35 59 44 84 53 155 11 87 7 263 -11 405 -5 43 -14
133 -20 199 -6 66 -17 154 -24 195 -8 41 -18 113 -22 159 l-7 84 43 -7 c24 -4
47 -9 51 -11z m234 -62 c-10 -40 -17 -20 -9 23 5 24 9 32 12 21 2 -10 1 -30
-3 -44z m-358 -80 c-3 -10 -5 -2 -5 17 0 19 2 27 5 18 2 -10 2 -26 0 -35z
m-160 5 c-3 -8 -6 -5 -6 6 -1 11 2 17 5 13 3 -3 4 -12 1 -19z m10 -70 c-3 -7
-5 -2 -5 12 0 14 2 19 5 13 2 -7 2 -19 0 -25z m10 -55 c-3 -10 -5 -4 -5 12 0
17 2 24 5 18 2 -7 2 -21 0 -30z m10 -70 c-3 -10 -5 -2 -5 17 0 19 2 27 5 18 2
-10 2 -26 0 -35z m21 -158 c-1 -35 -2 -33 -8 15 -5 30 -8 71 -8 90 1 28 2 25
8 -15 5 -27 8 -68 8 -90z m9 -107 c-2 -13 -4 -3 -4 22 0 25 2 35 4 23 2 -13 2
-33 0 -45z m10 -95 c-2 -16 -4 -5 -4 22 0 28 2 40 4 28 2 -13 2 -35 0 -50z
m10 -130 c-2 -21 -4 -6 -4 32 0 39 2 55 4 38 2 -18 2 -50 0 -70z m-21 -157
c-8 -41 -22 -89 -31 -108 -17 -38 -16 -26 15 92 11 41 20 89 21 105 1 24 3 25
6 7 2 -12 -2 -55 -11 -96z m524 -586 c0 -5 24 -10 53 -11 28 0 61 -4 72 -8 17
-7 16 -9 -10 -12 -17 -2 -75 -1 -130 2 -55 3 -91 7 -80 8 45 6 60 10 63 20 5
14 32 14 32 1z m53 3 c-7 -2 -21 -2 -30 0 -10 3 -4 5 12 5 17 0 24 -2 18 -5z
m-380 -70 c-7 -2 -19 -2 -25 0 -7 3 -2 5 12 5 14 0 19 -2 13 -5z m462 -3 c-11
-5 -76 -8 -145 -7 -117 1 -120 1 -45 7 126 10 213 10 190 0z m-270 -60 c3 -5
1 -10 -4 -10 -6 0 -11 5 -11 10 0 6 2 10 4 10 3 0 8 -4 11 -10z"/>
<path d="M655 4000 c-18 -8 -17 -9 8 -9 16 -1 26 3 22 9 -3 6 -7 10 -8 9 -1 0
-11 -4 -22 -9z"/>
<path d="M961 3484 c0 -11 3 -14 6 -6 3 7 2 16 -1 19 -3 4 -6 -2 -5 -13z"/>
<path d="M973 3442 c0 -12 5 -22 9 -22 11 0 10 12 -2 30 -7 12 -9 10 -7 -8z"/>
<path d="M315 2396 c-72 -72 -124 -295 -79 -340 19 -20 34 -20 83 0 35 14 39
19 32 37 -9 23 -8 40 4 77 5 16 -1 13 -28 -16 -24 -27 -39 -35 -52 -30 -37 14
-3 147 51 199 16 15 21 29 17 45 -3 12 0 29 7 37 21 25 -8 18 -35 -9z"/>
<path d="M593 2284 c-52 -67 -78 -131 -44 -110 16 10 82 127 78 139 -1 5 -17
-8 -34 -29z"/>
<path d="M465 2284 c-9 -15 -12 -23 -6 -20 11 7 35 46 28 46 -3 0 -12 -12 -22
-26z"/>
<path d="M311 2229 c-22 -63 -8 -80 23 -28 17 29 16 59 -3 59 -5 0 -14 -14
-20 -31z"/>
<path d="M973 2388 c-25 -28 -56 -88 -49 -95 17 -18 60 30 76 86 10 37 1 40
-27 9z"/>
<path d="M1002 2198 c-15 -15 -15 -35 -1 -44 13 -8 29 13 29 39 0 20 -11 22
-28 5z"/>
<path d="M1181 2173 c-23 -47 -42 -113 -31 -113 4 0 17 21 28 48 39 91 42 140
3 65z"/>
<path d="M955 2120 c-32 -61 -13 -79 29 -29 21 24 24 34 15 45 -17 21 -27 17
-44 -16z"/>
<path d="M363 1345 c0 -27 2 -38 4 -22 2 15 2 37 0 50 -2 12 -4 0 -4 -28z"/>
<path d="M381 1114 c0 -11 3 -14 6 -6 3 7 2 16 -1 19 -3 4 -6 -2 -5 -13z"/>
</g>
</svg>
